<svg xmlns="http://www.w3.org/2000/svg" xmlns:xlink="http://www.w3.org/1999/xlink" width="1920" zoomAndPan="magnify" viewBox="0 0 1440 809.999993" height="1080" preserveAspectRatio="xMidYMid meet" version="1.0"><defs><g/></defs><g fill="#ffffff" fill-opacity="1"><g transform="translate(426.211881, 544.254693)"><g><path d="M 559.847656 -453.980469 C 535.050781 -465.425781 505.484375 -455.890625 493.085938 -432.046875 C 493.085938 -431.09375 493.085938 -431.09375 493.085938 -430.136719 C 484.503906 -414.878906 472.101562 -407.25 459.703125 -403.433594 L 454.9375 -397.710938 L 469.242188 -371.960938 C 519.789062 -354.792969 545.542969 -361.46875 545.542969 -361.46875 C 560.800781 -364.332031 574.152344 -372.914062 581.785156 -387.21875 C 593.230469 -412.015625 583.691406 -441.582031 559.847656 -453.980469 Z M 466.378906 -63.902344 C 453.027344 -74.390625 438.722656 -82.023438 420.601562 -88.699219 C 403.433594 -94.421875 386.265625 -98.234375 368.144531 -99.1875 C 355.746094 -99.1875 335.71875 -100.144531 307.105469 -102.050781 C 278.492188 -103.957031 250.835938 -104.910156 223.175781 -105.867188 C 194.5625 -105.867188 175.488281 -108.726562 164.996094 -114.449219 C 154.507812 -119.21875 148.785156 -128.753906 148.785156 -142.109375 C 148.785156 -147.832031 150.691406 -153.554688 155.460938 -160.230469 C 160.230469 -165.953125 164.042969 -169.765625 167.859375 -172.628906 C 167.859375 -172.628906 194.5625 -189.796875 215.546875 -206.007812 L 214.59375 -210.777344 C 199.332031 -214.59375 191.703125 -222.222656 183.117188 -238.4375 C 170.71875 -260.371094 164.996094 -288.03125 164.996094 -320.457031 C 164.996094 -335.71875 165.953125 -350.023438 167.859375 -363.375 C 169.765625 -377.683594 173.582031 -390.082031 178.351562 -400.574219 C 181.210938 -405.339844 184.074219 -409.15625 187.886719 -412.972656 L 186.933594 -412.972656 C 186.933594 -412.972656 187.886719 -413.925781 187.886719 -413.925781 C 191.703125 -418.695312 214.59375 -444.445312 245.113281 -463.519531 L 244.160156 -468.289062 C 240.34375 -468.289062 237.480469 -469.242188 233.667969 -469.242188 C 169.765625 -469.242188 117.308594 -454.9375 76.300781 -428.230469 C 35.289062 -401.527344 14.304688 -366.238281 14.304688 -320.457031 C 14.304688 -288.984375 23.84375 -262.28125 42.917969 -240.34375 C 62.945312 -218.40625 93.46875 -199.332031 134.476562 -184.074219 L 134.476562 -179.304688 C 125.894531 -176.441406 115.402344 -173.582031 103.957031 -169.765625 C 91.558594 -164.996094 81.066406 -160.230469 72.484375 -154.507812 C 62.945312 -147.832031 54.363281 -140.199219 48.640625 -130.664062 C 41.964844 -122.078125 39.101562 -111.589844 39.101562 -98.234375 C 39.101562 -78.207031 46.734375 -59.132812 62.945312 -43.871094 C 77.253906 -28.613281 99.1875 -16.214844 125.894531 -6.675781 C 125.894531 -6.675781 163.089844 5.722656 175.488281 7.628906 C 217.453125 13.351562 250.835938 7.628906 275.632812 8.582031 C 300.429688 8.582031 319.503906 9.539062 329.996094 12.398438 C 350.023438 17.167969 363.375 26.703125 369.097656 37.195312 C 374.820312 47.6875 377.683594 57.226562 377.683594 67.714844 C 377.683594 102.050781 367.191406 126.847656 346.210938 142.109375 C 325.226562 157.367188 295.660156 164.996094 256.558594 164.996094 C 229.851562 164.996094 209.824219 162.136719 196.472656 157.367188 C 184.074219 151.644531 171.675781 144.96875 161.183594 136.386719 C 151.644531 127.800781 144.96875 120.171875 141.152344 110.632812 C 136.386719 101.097656 134.476562 93.46875 134.476562 85.835938 C 134.476562 67.714844 138.292969 52.457031 144.96875 40.058594 C 146.875 38.148438 147.832031 36.242188 149.738281 34.335938 L 147.832031 28.613281 L 70.578125 6.675781 C 50.546875 10.492188 35.289062 17.167969 22.890625 25.75 C 0 41.011719 -10.492188 61.039062 -10.492188 84.882812 C -10.492188 123.988281 9.539062 153.554688 51.503906 172.628906 C 93.46875 192.65625 154.507812 202.195312 234.621094 202.195312 C 285.167969 202.195312 326.179688 197.425781 360.515625 189.796875 C 393.894531 181.210938 422.507812 168.8125 447.304688 153.554688 C 470.195312 138.292969 487.363281 120.171875 497.855469 100.144531 C 509.300781 79.160156 515.023438 58.179688 515.023438 34.335938 C 515.023438 12.398438 510.253906 -6.675781 500.714844 -22.890625 C 492.132812 -39.101562 480.6875 -53.410156 466.378906 -63.902344 Z M 284.214844 -401.527344 C 295.660156 -381.496094 301.382812 -352.886719 301.382812 -317.597656 C 301.382812 -282.308594 292.800781 -249.882812 280.402344 -231.761719 C 280.402344 -231.761719 260.371094 -203.148438 221.269531 -180.257812 L 224.128906 -172.628906 L 242.25 -172.628906 C 271.816406 -172.628906 298.523438 -176.441406 324.273438 -183.117188 C 349.070312 -189.796875 371.007812 -199.332031 389.128906 -210.777344 C 407.25 -222.222656 422.507812 -237.480469 433.953125 -255.601562 C 445.398438 -274.679688 451.121094 -294.707031 451.121094 -315.6875 C 451.121094 -331.902344 447.304688 -347.164062 441.582031 -361.46875 C 435.859375 -376.730469 426.324219 -391.035156 414.878906 -404.386719 C 384.359375 -439.675781 360.515625 -447.304688 337.625 -453.980469 C 328.089844 -456.84375 317.597656 -458.75 297.566406 -462.566406 C 293.753906 -463.519531 289.9375 -463.519531 286.125 -464.472656 C 278.492188 -458.75 265.140625 -445.398438 251.789062 -433.953125 L 252.742188 -428.230469 C 268.957031 -425.371094 274.679688 -417.738281 284.214844 -401.527344 Z M 284.214844 -401.527344 "/></g></g></g></svg>