<svg xmlns="http://www.w3.org/2000/svg" xmlns:xlink="http://www.w3.org/1999/xlink" width="1920" zoomAndPan="magnify" viewBox="0 0 1440 809.999993" height="1080" preserveAspectRatio="xMidYMid meet" version="1.0"><defs><g/></defs><g fill="#ffffff" fill-opacity="1"><g transform="translate(104.969773, 510.770551)"><g><path d="M 217.875 -176.675781 C 208.222656 -181.128906 196.71875 -177.417969 191.890625 -168.136719 C 191.890625 -167.765625 191.890625 -167.765625 191.890625 -167.394531 C 188.550781 -161.457031 183.726562 -158.488281 178.902344 -157.003906 L 177.046875 -154.777344 L 182.613281 -144.753906 C 202.285156 -138.074219 212.304688 -140.671875 212.304688 -140.671875 C 218.246094 -141.785156 223.441406 -145.125 226.410156 -150.691406 C 230.863281 -160.34375 227.152344 -171.847656 217.875 -176.675781 Z M 181.5 -24.867188 C 176.304688 -28.949219 170.734375 -31.921875 163.683594 -34.519531 C 157.003906 -36.746094 150.320312 -38.230469 143.269531 -38.601562 C 138.445312 -38.601562 130.648438 -38.972656 119.515625 -39.714844 C 108.378906 -40.457031 97.617188 -40.828125 86.851562 -41.199219 C 75.71875 -41.199219 68.292969 -42.3125 64.210938 -44.539062 C 60.128906 -46.394531 57.902344 -50.105469 57.902344 -55.304688 C 57.902344 -57.53125 58.644531 -59.757812 60.5 -62.355469 C 62.355469 -64.582031 63.839844 -66.066406 65.324219 -67.179688 C 65.324219 -67.179688 75.71875 -73.863281 83.882812 -80.171875 L 83.511719 -82.027344 C 77.574219 -83.511719 74.605469 -86.480469 71.265625 -92.792969 C 66.4375 -101.328125 64.210938 -112.09375 64.210938 -124.710938 C 64.210938 -130.648438 64.582031 -136.21875 65.324219 -141.414062 C 66.066406 -146.980469 67.550781 -151.808594 69.40625 -155.890625 C 70.519531 -157.746094 71.636719 -159.230469 73.121094 -160.714844 L 72.75 -160.714844 C 72.75 -160.714844 73.121094 -161.085938 73.121094 -161.085938 C 74.605469 -162.941406 83.511719 -172.964844 95.390625 -180.386719 L 95.019531 -182.242188 C 93.535156 -182.242188 92.421875 -182.613281 90.933594 -182.613281 C 66.066406 -182.613281 45.652344 -177.046875 29.691406 -166.652344 C 13.734375 -156.261719 5.566406 -142.527344 5.566406 -124.710938 C 5.566406 -112.464844 9.277344 -102.070312 16.703125 -93.535156 C 24.496094 -84.996094 36.375 -77.574219 52.335938 -71.636719 L 52.335938 -69.777344 C 48.992188 -68.664062 44.910156 -67.550781 40.457031 -66.066406 C 35.632812 -64.210938 31.550781 -62.355469 28.207031 -60.128906 C 24.496094 -57.53125 21.15625 -54.5625 18.929688 -50.851562 C 16.332031 -47.507812 15.21875 -43.425781 15.21875 -38.230469 C 15.21875 -30.4375 18.1875 -23.011719 24.496094 -17.074219 C 30.0625 -11.136719 38.601562 -6.308594 48.992188 -2.597656 C 48.992188 -2.597656 63.46875 2.226562 68.292969 2.96875 C 84.625 5.195312 97.617188 2.96875 107.265625 3.339844 C 116.917969 3.339844 124.339844 3.710938 128.421875 4.824219 C 136.21875 6.679688 141.414062 10.394531 143.640625 14.476562 C 145.867188 18.558594 146.980469 22.269531 146.980469 26.351562 C 146.980469 39.714844 142.898438 49.363281 134.734375 55.304688 C 126.566406 61.242188 115.0625 64.210938 99.84375 64.210938 C 89.449219 64.210938 81.65625 63.097656 76.460938 61.242188 C 71.636719 59.015625 66.808594 56.417969 62.726562 53.078125 C 59.015625 49.734375 56.417969 46.765625 54.933594 43.054688 C 53.078125 39.34375 52.335938 36.375 52.335938 33.40625 C 52.335938 26.351562 53.820312 20.414062 56.417969 15.589844 C 57.160156 14.847656 57.53125 14.105469 58.273438 13.363281 L 57.53125 11.136719 L 27.464844 2.597656 C 19.671875 4.082031 13.734375 6.679688 8.90625 10.019531 C 0 15.960938 -4.082031 23.753906 -4.082031 33.035156 C -4.082031 48.25 3.710938 59.757812 20.042969 67.179688 C 36.375 74.976562 60.128906 78.6875 91.308594 78.6875 C 110.976562 78.6875 126.9375 76.832031 140.300781 73.863281 C 153.292969 70.519531 164.425781 65.695312 174.078125 59.757812 C 182.984375 53.820312 189.664062 46.765625 193.75 38.972656 C 198.203125 30.808594 200.429688 22.640625 200.429688 13.363281 C 200.429688 4.824219 198.574219 -2.597656 194.863281 -8.90625 C 191.519531 -15.21875 187.066406 -20.785156 181.5 -24.867188 Z M 110.605469 -156.261719 C 115.0625 -148.464844 117.289062 -137.332031 117.289062 -123.597656 C 117.289062 -109.863281 113.949219 -97.246094 109.121094 -90.191406 C 109.121094 -90.191406 101.328125 -79.058594 86.109375 -70.148438 L 87.222656 -67.179688 L 94.277344 -67.179688 C 105.78125 -67.179688 116.175781 -68.664062 126.195312 -71.265625 C 135.847656 -73.863281 144.382812 -77.574219 151.433594 -82.027344 C 158.488281 -86.480469 164.425781 -92.421875 168.878906 -99.472656 C 173.335938 -106.894531 175.5625 -114.691406 175.5625 -122.855469 C 175.5625 -129.164062 174.078125 -135.105469 171.847656 -140.671875 C 169.621094 -146.609375 165.910156 -152.179688 161.457031 -157.375 C 149.578125 -171.105469 140.300781 -174.078125 131.390625 -176.675781 C 127.679688 -177.789062 123.597656 -178.53125 115.804688 -180.015625 C 114.320312 -180.386719 112.835938 -180.386719 111.351562 -180.757812 C 108.378906 -178.53125 103.183594 -173.335938 97.988281 -168.878906 L 98.359375 -166.652344 C 104.667969 -165.539062 106.894531 -162.570312 110.605469 -156.261719 Z M 110.605469 -156.261719 "/></g></g></g><g fill="#ffffff" fill-opacity="1"><g transform="translate(333.600001, 510.770551)"><g><path d="M 98.359375 -16.703125 C 95.390625 -18.558594 93.164062 -20.414062 91.679688 -23.382812 C 90.5625 -25.980469 89.820312 -29.320312 89.820312 -33.777344 L 89.820312 -175.191406 L 87.222656 -178.160156 L 2.226562 -173.335938 L 2.226562 -160.34375 C 5.9375 -159.972656 9.648438 -159.230469 12.992188 -158.488281 C 15.960938 -157.375 18.929688 -156.261719 20.785156 -154.777344 C 23.753906 -152.921875 26.351562 -149.949219 28.207031 -146.609375 C 30.4375 -143.269531 31.179688 -139.558594 31.179688 -135.105469 L 31.179688 -31.550781 C 31.179688 -27.09375 30.4375 -23.382812 28.949219 -20.785156 C 27.835938 -18.1875 25.238281 -15.960938 21.15625 -14.847656 C 19.300781 -14.105469 16.703125 -13.363281 13.363281 -12.992188 C 10.394531 -12.621094 7.421875 -12.25 4.453125 -11.878906 L 4.453125 1.113281 L 123.96875 1.113281 L 123.96875 -11.878906 C 121 -12.25 116.917969 -12.621094 110.976562 -13.734375 C 105.039062 -14.476562 100.957031 -15.589844 98.359375 -16.703125 Z M 170.734375 -172.964844 C 162.941406 -179.273438 153.292969 -181.5 144.011719 -179.644531 L 144.382812 -179.644531 C 144.382812 -179.644531 125.453125 -177.417969 100.585938 -156.261719 L 100.585938 -137.703125 L 105.039062 -135.476562 C 112.835938 -136.21875 121.742188 -135.105469 129.90625 -127.679688 L 129.90625 -128.050781 C 130.277344 -127.679688 130.277344 -127.308594 130.648438 -127.308594 C 143.269531 -116.175781 162.570312 -117.660156 173.335938 -129.90625 C 184.46875 -142.527344 183.355469 -161.828125 170.734375 -172.964844 Z M 170.734375 -172.964844 "/></g></g></g><g fill="#ffffff" fill-opacity="1"><g transform="translate(516.207236, 510.770551)"><g><path d="M 181.128906 -53.820312 C 174.820312 -44.539062 167.394531 -36.746094 158.488281 -30.4375 C 149.578125 -24.496094 139.1875 -21.527344 128.050781 -21.527344 C 107.636719 -21.527344 92.792969 -27.835938 83.511719 -40.457031 C 74.234375 -53.078125 69.40625 -71.636719 69.40625 -96.132812 L 69.40625 -110.976562 C 69.777344 -125.824219 71.636719 -137.703125 74.605469 -146.609375 C 74.605469 -146.609375 81.65625 -171.105469 108.378906 -180.757812 L 108.378906 -183.355469 C 106.523438 -183.355469 104.667969 -183.355469 102.8125 -183.355469 C 87.59375 -183.355469 73.863281 -180.757812 61.613281 -175.5625 C 49.363281 -170.363281 38.972656 -163.3125 31.179688 -155.148438 C 23.011719 -146.238281 16.703125 -136.589844 12.25 -125.453125 C 7.792969 -114.320312 5.566406 -102.8125 5.566406 -90.5625 C 5.566406 -77.203125 7.421875 -64.582031 11.507812 -53.078125 C 15.589844 -41.570312 21.898438 -31.921875 30.0625 -23.382812 C 38.601562 -14.847656 48.992188 -8.164062 61.984375 -3.339844 C 74.605469 1.855469 89.820312 4.453125 107.265625 4.453125 C 118.03125 4.453125 127.308594 2.96875 135.476562 0.742188 C 143.640625 -1.484375 151.433594 -4.824219 159.601562 -9.277344 C 167.023438 -13.734375 173.707031 -18.929688 179.644531 -24.867188 C 185.582031 -30.808594 190.40625 -37.117188 194.863281 -44.167969 Z M 121.742188 -152.179688 C 123.597656 -147.351562 124.710938 -141.042969 125.453125 -133.621094 C 126.195312 -126.195312 126.566406 -118.773438 126.566406 -111.722656 L 84.253906 -111.351562 L 84.253906 -96.132812 L 190.035156 -96.132812 L 190.035156 -107.636719 C 190.035156 -117.660156 188.179688 -127.308594 185.210938 -136.589844 C 182.242188 -145.867188 177.046875 -153.664062 170.363281 -160.714844 C 163.3125 -167.765625 154.40625 -173.335938 144.011719 -177.417969 C 141.785156 -178.160156 139.1875 -178.902344 136.960938 -179.644531 C 136.21875 -179.273438 122.855469 -175.5625 113.949219 -167.023438 L 114.320312 -164.054688 C 117.289062 -161.085938 119.886719 -157.375 121.742188 -152.179688 Z M 121.742188 -152.179688 "/></g></g></g><g fill="#ffffff" fill-opacity="1"><g transform="translate(715.88752, 510.770551)"><g><path d="M 181.128906 -53.820312 C 174.820312 -44.539062 167.394531 -36.746094 158.488281 -30.4375 C 149.578125 -24.496094 139.1875 -21.527344 128.050781 -21.527344 C 107.636719 -21.527344 92.792969 -27.835938 83.511719 -40.457031 C 74.234375 -53.078125 69.40625 -71.636719 69.40625 -96.132812 L 69.40625 -110.976562 C 69.777344 -125.824219 71.636719 -137.703125 74.605469 -146.609375 C 74.605469 -146.609375 81.65625 -171.105469 108.378906 -180.757812 L 108.378906 -183.355469 C 106.523438 -183.355469 104.667969 -183.355469 102.8125 -183.355469 C 87.59375 -183.355469 73.863281 -180.757812 61.613281 -175.5625 C 49.363281 -170.363281 38.972656 -163.3125 31.179688 -155.148438 C 23.011719 -146.238281 16.703125 -136.589844 12.25 -125.453125 C 7.792969 -114.320312 5.566406 -102.8125 5.566406 -90.5625 C 5.566406 -77.203125 7.421875 -64.582031 11.507812 -53.078125 C 15.589844 -41.570312 21.898438 -31.921875 30.0625 -23.382812 C 38.601562 -14.847656 48.992188 -8.164062 61.984375 -3.339844 C 74.605469 1.855469 89.820312 4.453125 107.265625 4.453125 C 118.03125 4.453125 127.308594 2.96875 135.476562 0.742188 C 143.640625 -1.484375 151.433594 -4.824219 159.601562 -9.277344 C 167.023438 -13.734375 173.707031 -18.929688 179.644531 -24.867188 C 185.582031 -30.808594 190.40625 -37.117188 194.863281 -44.167969 Z M 121.742188 -152.179688 C 123.597656 -147.351562 124.710938 -141.042969 125.453125 -133.621094 C 126.195312 -126.195312 126.566406 -118.773438 126.566406 -111.722656 L 84.253906 -111.351562 L 84.253906 -96.132812 L 190.035156 -96.132812 L 190.035156 -107.636719 C 190.035156 -117.660156 188.179688 -127.308594 185.210938 -136.589844 C 182.242188 -145.867188 177.046875 -153.664062 170.363281 -160.714844 C 163.3125 -167.765625 154.40625 -173.335938 144.011719 -177.417969 C 141.785156 -178.160156 139.1875 -178.902344 136.960938 -179.644531 C 136.21875 -179.273438 122.855469 -175.5625 113.949219 -167.023438 L 114.320312 -164.054688 C 117.289062 -161.085938 119.886719 -157.375 121.742188 -152.179688 Z M 121.742188 -152.179688 "/></g></g></g><g fill="#ffffff" fill-opacity="1"><g transform="translate(915.567804, 510.770551)"><g><path d="M 96.875 -17.074219 C 94.277344 -18.929688 92.421875 -20.785156 91.308594 -23.753906 C 90.191406 -26.351562 89.820312 -29.691406 89.820312 -34.148438 L 89.820312 -175.933594 L 87.222656 -178.53125 L 2.226562 -174.078125 L 2.226562 -161.085938 C 5.9375 -160.714844 9.648438 -159.972656 12.992188 -158.859375 C 15.960938 -158.117188 18.929688 -156.632812 20.785156 -155.519531 C 23.753906 -153.292969 26.351562 -150.691406 28.207031 -146.980469 C 30.4375 -143.269531 31.179688 -139.558594 31.179688 -135.847656 L 31.179688 -31.921875 C 31.179688 -27.464844 30.4375 -24.125 28.949219 -21.527344 C 27.835938 -18.929688 25.238281 -16.703125 21.15625 -15.21875 C 19.300781 -14.476562 16.703125 -13.734375 13.734375 -13.363281 C 10.765625 -12.992188 7.792969 -12.992188 4.453125 -12.621094 L 4.453125 0.371094 L 111.351562 0.371094 L 111.351562 -12.621094 C 108.75 -12.992188 106.152344 -13.734375 103.554688 -14.476562 C 100.957031 -15.21875 99.101562 -16.332031 96.875 -17.074219 Z M 230.121094 -14.476562 C 227.152344 -15.21875 224.925781 -15.960938 223.070312 -17.074219 C 219.730469 -18.1875 217.132812 -20.414062 216.019531 -23.011719 C 214.535156 -25.609375 213.792969 -29.320312 213.792969 -33.777344 L 213.792969 -120.257812 C 213.792969 -139.929688 208.964844 -154.777344 199.316406 -165.539062 C 189.664062 -175.933594 175.933594 -181.128906 158.117188 -181.128906 C 149.949219 -181.128906 142.15625 -180.386719 135.105469 -178.160156 C 127.679688 -176.304688 121.742188 -173.707031 117.289062 -170.734375 C 113.207031 -168.136719 108.378906 -164.796875 103.554688 -160.34375 L 103.554688 -145.496094 L 105.78125 -144.011719 C 109.121094 -146.238281 112.464844 -148.09375 116.175781 -149.578125 C 120.257812 -151.0625 124.710938 -152.179688 129.90625 -152.179688 C 138.074219 -152.179688 144.382812 -148.835938 148.464844 -142.898438 C 152.921875 -136.589844 155.148438 -127.679688 155.148438 -115.433594 L 155.148438 -31.921875 C 155.148438 -27.464844 154.777344 -24.125 154.035156 -21.15625 C 153.292969 -18.558594 151.808594 -16.332031 149.207031 -15.21875 C 147.351562 -14.476562 144.753906 -13.734375 142.15625 -13.363281 C 139.1875 -13.363281 136.589844 -12.992188 133.992188 -12.621094 L 133.992188 0.371094 L 239.773438 0.371094 L 239.773438 -12.621094 C 236.0625 -12.992188 232.722656 -13.734375 230.121094 -14.476562 Z M 230.121094 -14.476562 "/></g></g></g><g fill="#ffffff" fill-opacity="1"><g transform="translate(1156.074927, 510.770551)"><g><path d="M 70.148438 0 L 108.378906 0 L 108.378906 -64.953125 L 164.796875 -64.953125 L 173.707031 -73.492188 L 173.707031 -103.183594 L 108.378906 -103.183594 L 108.378906 -168.507812 L 70.148438 -168.507812 L 70.148438 -103.183594 L 5.195312 -103.183594 L 5.195312 -64.953125 L 70.148438 -64.953125 Z M 70.148438 0 "/></g></g></g></svg>